<mxfile host="65bd71144e">
    <diagram id="nYykl9YyWXMAAkS-OBVn" name="Page-1">
        <mxGraphModel dx="1130" dy="784" grid="1" gridSize="10" guides="1" tooltips="1" connect="1" arrows="1" fold="1" page="1" pageScale="1" pageWidth="2339" pageHeight="3300" math="0" shadow="0">
            <root>
                <mxCell id="0"/>
                <mxCell id="1" parent="0"/>
                <mxCell id="2" value="" style="fontStyle=1;align=center;verticalAlign=top;childLayout=stackLayout;horizontal=1;horizontalStack=0;resizeParent=1;resizeParentMax=0;resizeLast=0;marginBottom=0;fontSize=6;fillColor=#76608a;strokeColor=#432D57;fontColor=#ffffff;" vertex="1" parent="1">
                    <mxGeometry x="395.6827777777778" y="572" width="148.20555555555555" height="156" as="geometry"/>
                </mxCell>
                <mxCell id="3" value="API" style="html=1;align=left;spacingLeft=4;verticalAlign=middle;strokeColor=none;fillColor=none;fontSize=14;" vertex="1" parent="2">
                    <mxGeometry width="148.20555555555555" height="36" as="geometry"/>
                </mxCell>
                <mxCell id="4" value="" style="sketch=0;points=[[0,0,0],[0.25,0,0],[0.5,0,0],[0.75,0,0],[1,0,0],[0,1,0],[0.25,1,0],[0.5,1,0],[0.75,1,0],[1,1,0],[0,0.25,0],[0,0.5,0],[0,0.75,0],[1,0.25,0],[1,0.5,0],[1,0.75,0]];outlineConnect=0;gradientDirection=north;dashed=0;verticalLabelPosition=bottom;verticalAlign=top;align=center;html=1;fontSize=12;fontStyle=0;aspect=fixed;shape=mxgraph.aws4.resourceIcon;resIcon=mxgraph.aws4.api_gateway;fillColor=#76608a;strokeColor=#432D57;fontColor=#ffffff;" vertex="1" parent="3">
                    <mxGeometry x="1" width="22.4" height="28" relative="1" as="geometry">
                        <mxPoint x="-32" y="4" as="offset"/>
                    </mxGeometry>
                </mxCell>
                <mxCell id="5" value="" style="line;strokeWidth=1;fillColor=none;align=left;verticalAlign=middle;spacingTop=-1;spacingLeft=3;spacingRight=3;rotatable=0;labelPosition=right;points=[];portConstraint=eastwest;fontSize=6;" vertex="1" parent="2">
                    <mxGeometry y="36" width="148.20555555555555" height="8" as="geometry"/>
                </mxCell>
                <mxCell id="6" value="&lt;font style=&quot;font-size: 12px;&quot;&gt;/auth&lt;/font&gt;" style="html=1;align=center;spacingLeft=3;verticalAlign=middle;strokeColor=none;fillColor=none;fontSize=6;" vertex="1" parent="2">
                    <mxGeometry y="44" width="148.20555555555555" height="18" as="geometry"/>
                </mxCell>
                <mxCell id="7" value="&lt;font style=&quot;font-size: 7px;&quot;&gt;/login&lt;br style=&quot;font-size: 7px;&quot;&gt;/register&lt;br style=&quot;font-size: 7px;&quot;&gt;/forgotpassword&lt;br style=&quot;font-size: 7px;&quot;&gt;/resetpassword&lt;/font&gt;" style="html=1;align=left;spacingLeft=4;verticalAlign=middle;strokeColor=none;fillColor=none;fontSize=7;" vertex="1" parent="2">
                    <mxGeometry y="62" width="148.20555555555555" height="38" as="geometry"/>
                </mxCell>
                <mxCell id="8" value="" style="line;strokeWidth=1;fillColor=none;align=left;verticalAlign=middle;spacingTop=-1;spacingLeft=3;spacingRight=3;rotatable=0;labelPosition=right;points=[];portConstraint=eastwest;fontSize=6;" vertex="1" parent="2">
                    <mxGeometry y="100" width="148.20555555555555" height="8" as="geometry"/>
                </mxCell>
                <mxCell id="9" value="&lt;font style=&quot;font-size: 12px;&quot;&gt;/integrations&lt;/font&gt;" style="html=1;align=center;spacingLeft=4;verticalAlign=middle;strokeColor=none;fillColor=none;fontSize=12;" vertex="1" parent="2">
                    <mxGeometry y="108" width="148.20555555555555" height="18" as="geometry"/>
                </mxCell>
                <mxCell id="10" value="/db&lt;br style=&quot;font-size: 7px;&quot;&gt;/studentcalender" style="html=1;align=left;spacingLeft=4;verticalAlign=middle;strokeColor=none;fillColor=none;fontSize=7;" vertex="1" parent="2">
                    <mxGeometry y="126" width="148.20555555555555" height="30" as="geometry"/>
                </mxCell>
            </root>
        </mxGraphModel>
    </diagram>
</mxfile>